Results
version=1
nRows=4
nColumns=171
inDegrees=yes
endheader
time	/jointset/ground_pelvis/pelvis_tilt/value	/jointset/ground_pelvis/pelvis_tilt/speed	/jointset/ground_pelvis/pelvis_list/value	/jointset/ground_pelvis/pelvis_list/speed	/jointset/ground_pelvis/pelvis_rotation/value	/jointset/ground_pelvis/pelvis_rotation/speed	/jointset/ground_pelvis/pelvis_tx/value	/jointset/ground_pelvis/pelvis_tx/speed	/jointset/ground_pelvis/pelvis_ty/value	/jointset/ground_pelvis/pelvis_ty/speed	/jointset/ground_pelvis/pelvis_tz/value	/jointset/ground_pelvis/pelvis_tz/speed	/jointset/hip_r/hip_flexion_r/value	/jointset/hip_r/hip_flexion_r/speed	/jointset/hip_r/hip_adduction_r/value	/jointset/hip_r/hip_adduction_r/speed	/jointset/hip_r/hip_rotation_r/value	/jointset/hip_r/hip_rotation_r/speed	/jointset/walker_knee_r/knee_angle_r/value	/jointset/walker_knee_r/knee_angle_r/speed	/jointset/patellofemoral_r/knee_angle_r_beta/value	/jointset/patellofemoral_r/knee_angle_r_beta/speed	/jointset/ankle_r/ankle_angle_r/value	/jointset/ankle_r/ankle_angle_r/speed	/jointset/subtalar_r/subtalar_angle_r/value	/jointset/subtalar_r/subtalar_angle_r/speed	/jointset/mtp_r/mtp_angle_r/value	/jointset/mtp_r/mtp_angle_r/speed	/jointset/hip_l/hip_flexion_l/value	/jointset/hip_l/hip_flexion_l/speed	/jointset/hip_l/hip_adduction_l/value	/jointset/hip_l/hip_adduction_l/speed	/jointset/hip_l/hip_rotation_l/value	/jointset/hip_l/hip_rotation_l/speed	/jointset/walker_knee_l/knee_angle_l/value	/jointset/walker_knee_l/knee_angle_l/speed	/jointset/patellofemoral_l/knee_angle_l_beta/value	/jointset/patellofemoral_l/knee_angle_l_beta/speed	/jointset/ankle_l/ankle_angle_l/value	/jointset/ankle_l/ankle_angle_l/speed	/jointset/subtalar_l/subtalar_angle_l/value	/jointset/subtalar_l/subtalar_angle_l/speed	/jointset/mtp_l/mtp_angle_l/value	/jointset/mtp_l/mtp_angle_l/speed	/forceset/addbrev_r/activation	/forceset/addlong_r/activation	/forceset/addlong_r/fiber_length	/forceset/addmagDist_r/activation	/forceset/addmagIsch_r/activation	/forceset/addmagIsch_r/fiber_length	/forceset/addmagMid_r/activation	/forceset/addmagProx_r/activation	/forceset/bflh140_r/activation	/forceset/bflh140_r/fiber_length	/forceset/bfsh140_r/activation	/forceset/edl_r/activation	/forceset/edl_r/fiber_length	/forceset/ehl_r/activation	/forceset/ehl_r/fiber_length	/forceset/fdl_r/activation	/forceset/fdl_r/fiber_length	/forceset/fhl_r/activation	/forceset/fhl_r/fiber_length	/forceset/gaslat140_r/activation	/forceset/gaslat140_r/fiber_length	/forceset/gasmed_r/activation	/forceset/gasmed_r/fiber_length	/forceset/glmax1_r/activation	/forceset/glmax2_r/activation	/forceset/glmax3_r/activation	/forceset/glmed1_r/activation	/forceset/glmed2_r/activation	/forceset/glmed3_r/activation	/forceset/glmin1_r/activation	/forceset/glmin2_r/activation	/forceset/glmin3_r/activation	/forceset/glmin3_r/fiber_length	/forceset/grac_r/activation	/forceset/iliacus_r/activation	/forceset/perbrev_r/activation	/forceset/perbrev_r/fiber_length	/forceset/perlong_r/activation	/forceset/perlong_r/fiber_length	/forceset/piri_r/activation	/forceset/piri_r/fiber_length	/forceset/psoas_r/activation	/forceset/recfem_r/activation	/forceset/recfem_r/fiber_length	/forceset/sart_r/activation	/forceset/semimem_r/activation	/forceset/semimem_r/fiber_length	/forceset/semiten_r/activation	/forceset/semiten_r/fiber_length	/forceset/soleus_r/activation	/forceset/soleus_r/fiber_length	/forceset/tfl_r/activation	/forceset/tfl_r/fiber_length	/forceset/tibant_r/activation	/forceset/tibant_r/fiber_length	/forceset/tibpost_r/activation	/forceset/tibpost_r/fiber_length	/forceset/vasint_r/activation	/forceset/vasint_r/fiber_length	/forceset/vaslat140_r/activation	/forceset/vaslat140_r/fiber_length	/forceset/vasmed_r/activation	/forceset/vasmed_r/fiber_length	/forceset/addbrev_l/activation	/forceset/addlong_l/activation	/forceset/addlong_l/fiber_length	/forceset/addmagDist_l/activation	/forceset/addmagIsch_l/activation	/forceset/addmagIsch_l/fiber_length	/forceset/addmagMid_l/activation	/forceset/addmagProx_l/activation	/forceset/bflh140_l/activation	/forceset/bflh140_l/fiber_length	/forceset/bfsh140_l/activation	/forceset/edl_l/activation	/forceset/edl_l/fiber_length	/forceset/ehl_l/activation	/forceset/ehl_l/fiber_length	/forceset/fdl_l/activation	/forceset/fdl_l/fiber_length	/forceset/fhl_l/activation	/forceset/fhl_l/fiber_length	/forceset/gaslat140_l/activation	/forceset/gaslat140_l/fiber_length	/forceset/gasmed_l/activation	/forceset/gasmed_l/fiber_length	/forceset/glmax1_l/activation	/forceset/glmax2_l/activation	/forceset/glmax3_l/activation	/forceset/glmed1_l/activation	/forceset/glmed2_l/activation	/forceset/glmed3_l/activation	/forceset/glmin1_l/activation	/forceset/glmin2_l/activation	/forceset/glmin3_l/activation	/forceset/glmin3_l/fiber_length	/forceset/grac_l/activation	/forceset/iliacus_l/activation	/forceset/perbrev_l/activation	/forceset/perbrev_l/fiber_length	/forceset/perlong_l/activation	/forceset/perlong_l/fiber_length	/forceset/piri_l/activation	/forceset/piri_l/fiber_length	/forceset/psoas_l/activation	/forceset/recfem_l/activation	/forceset/recfem_l/fiber_length	/forceset/sart_l/activation	/forceset/semimem_l/activation	/forceset/semimem_l/fiber_length	/forceset/semiten_l/activation	/forceset/semiten_l/fiber_length	/forceset/soleus_l/activation	/forceset/soleus_l/fiber_length	/forceset/tfl_l/activation	/forceset/tfl_l/fiber_length	/forceset/tibant_l/activation	/forceset/tibant_l/fiber_length	/forceset/tibpost_l/activation	/forceset/tibpost_l/fiber_length	/forceset/vasint_l/activation	/forceset/vasint_l/fiber_length	/forceset/vaslat140_l/activation	/forceset/vaslat140_l/fiber_length	/forceset/vasmed_l/activation	/forceset/vasmed_l/fiber_length
      0.07968550	      1.27350293	     12.30558502	     -0.00000000	     -0.00000007	      0.00000000	      0.00000001	     -0.00004623	      0.00117852	      0.90079321	     -0.76477532	      0.00000000	      0.00000000	     -1.99803826	    -21.20498615	      0.19077940	      4.61232449	     -3.00304650	    -70.51213506	     -2.04412338	    -24.16182554	     -0.03567668	     -0.42170341	    -12.94707674	    -83.23646392	      0.43056235	     71.93017847	      0.00000000	      0.00000000	     -1.99803826	    -21.20498614	      0.19077940	      4.61232424	     -3.00304650	    -70.51213496	     -2.04412320	    -24.16182551	     -0.03567668	     -0.42170341	    -12.94707672	    -83.23646362	      0.43056233	     71.93017865	      0.00000000	      0.00000000	     -0.00025951	     -0.00025951	      0.11440823	     -0.00025951	     -0.00025951	      0.12402686	     -0.00025951	     -0.00025951	     -0.00025951	      0.08890805	     -0.00025951	     -0.00025951	      0.07640478	     -0.00025951	      0.08578996	     -0.00025951	      0.04353913	     -0.00025951	      0.04819714	     -0.00025951	      0.06462755	     -0.00025951	      0.05552314	     -0.00025951	     -0.00025951	     -0.00025951	     -0.00025951	     -0.00025951	     -0.00025951	     -0.00025951	     -0.00025951	     -0.00025951	      0.03695057	     -0.00025951	     -0.00025951	     -0.00025951	      0.04732172	     -0.00025951	      0.05236112	     -0.00025951	      0.02176714	     -0.00025951	     -0.00025951	      0.06296325	     -0.00025951	     -0.00025951	      0.07996105	     -0.00025951	      0.21227930	     -0.00025951	      0.03542784	     -0.00025951	      0.09929049	     -0.00025951	      0.07487103	     -0.00025951	      0.03716832	     -0.00025951	      0.07614501	     -0.00025951	      0.07911857	     -0.00025951	      0.07580057	     -0.00025951	     -0.00025951	      0.11440823	     -0.00025951	     -0.00025951	      0.12402686	     -0.00025951	     -0.00025951	     -0.00025951	      0.08890805	     -0.00025951	     -0.00025951	      0.07640478	     -0.00025951	      0.08578996	     -0.00025951	      0.04353913	     -0.00025951	      0.04819714	     -0.00025951	      0.06462755	     -0.00025951	      0.05552314	     -0.00025951	     -0.00025951	     -0.00025951	     -0.00025951	     -0.00025951	     -0.00025951	     -0.00025951	     -0.00025951	     -0.00025951	      0.03695057	     -0.00025951	     -0.00025951	     -0.00025951	      0.04732172	     -0.00025951	      0.05236112	     -0.00025951	      0.02176714	     -0.00025951	     -0.00025951	      0.06296325	     -0.00025951	     -0.00025951	      0.07996105	     -0.00025951	      0.21227930	     -0.00025951	      0.03542784	     -0.00025951	      0.09929049	     -0.00025951	      0.07487103	     -0.00025951	      0.03716832	     -0.00025951	      0.07614501	     -0.00025951	      0.07911857	     -0.00025951	      0.07580057
      0.08190189	      1.30027773	     11.85376780	     -0.00000000	     -0.00000007	      0.00000000	      0.00000001	     -0.00004347	      0.00131608	      0.89907347	     -0.78706461	      0.00000000	      0.00000000	     -2.04452006	    -20.73519867	      0.20121227	      4.80208817	     -3.16073070	    -71.77310336	     -2.09784284	    -24.30558805	     -0.03661426	     -0.42421254	    -13.13140585	    -83.05136923	      0.58986064	     71.81528431	      0.00000000	      0.00000000	     -2.04452006	    -20.73519866	      0.20121226	      4.80208792	     -3.16073069	    -71.77310325	     -2.09784266	    -24.30558803	     -0.03661426	     -0.42421254	    -13.13140583	    -83.05136904	      0.58986063	     71.81528443	      0.00000000	      0.00000000	     -0.00054487	     -0.00054487	      0.11444809	     -0.00054487	     -0.00054487	      0.12400270	     -0.00054487	     -0.00054487	     -0.00054487	      0.08887765	     -0.00054487	     -0.00054487	      0.07653764	     -0.00054487	      0.08588922	     -0.00054487	      0.04345774	     -0.00054487	      0.04810517	     -0.00054487	      0.06448699	     -0.00054487	      0.05538760	     -0.00054487	     -0.00054487	     -0.00054487	     -0.00054487	     -0.00054487	     -0.00054487	     -0.00054487	     -0.00054487	     -0.00054487	      0.03690542	     -0.00054487	     -0.00054487	     -0.00054487	      0.04736268	     -0.00054487	      0.05238983	     -0.00054487	      0.02168828	     -0.00054487	     -0.00054487	      0.06294803	     -0.00054487	     -0.00054487	      0.07995481	     -0.00054487	      0.21227372	     -0.00054487	      0.03529552	     -0.00054487	      0.09930619	     -0.00054487	      0.07496321	     -0.00054487	      0.03708260	     -0.00054487	      0.07610513	     -0.00054487	      0.07908625	     -0.00054487	      0.07576987	     -0.00054487	     -0.00054487	      0.11444809	     -0.00054487	     -0.00054487	      0.12400270	     -0.00054487	     -0.00054487	     -0.00054487	      0.08887765	     -0.00054487	     -0.00054487	      0.07653764	     -0.00054487	      0.08588922	     -0.00054487	      0.04345774	     -0.00054487	      0.04810517	     -0.00054487	      0.06448699	     -0.00054487	      0.05538760	     -0.00054487	     -0.00054487	     -0.00054487	     -0.00054487	     -0.00054487	     -0.00054487	     -0.00054487	     -0.00054487	     -0.00054487	      0.03690542	     -0.00054487	     -0.00054487	     -0.00054487	      0.04736268	     -0.00054487	      0.05238983	     -0.00054487	      0.02168828	     -0.00054487	     -0.00054487	      0.06294803	     -0.00054487	     -0.00054487	      0.07995481	     -0.00054487	      0.21227372	     -0.00054487	      0.03529552	     -0.00054487	      0.09930619	     -0.00054487	      0.07496321	     -0.00054487	      0.03708260	     -0.00054487	      0.07610513	     -0.00054487	      0.07908625	     -0.00054487	      0.07576987
      0.08411829	      1.32603970	     11.39113686	     -0.00000000	     -0.00000006	      0.00000000	      0.00000001	     -0.00004040	      0.00145199	      0.89730430	     -0.80937376	      0.00000000	      0.00000000	     -2.08993518	    -20.24204208	      0.21206683	      4.99288235	     -3.32118513	    -73.01186545	     -2.15183485	    -24.40864361	     -0.03755660	     -0.42601120	    -13.31505420	    -82.63193256	      0.74889526	     71.68917307	      0.00000000	      0.00000000	     -2.08993518	    -20.24204207	      0.21206683	      4.99288211	     -3.32118513	    -73.01186534	     -2.15183467	    -24.40864361	     -0.03755660	     -0.42601120	    -13.31505418	    -82.63193246	      0.74889525	     71.68917314	      0.00000000	      0.00000000	     -0.00083023	     -0.00083023	      0.11448753	     -0.00083023	     -0.00083023	      0.12397923	     -0.00083023	     -0.00083023	     -0.00083023	      0.08884788	     -0.00083023	     -0.00083023	      0.07666992	     -0.00083023	      0.08598784	     -0.00083023	      0.04337614	     -0.00083023	      0.04801303	     -0.00083023	      0.06434674	     -0.00083023	      0.05525234	     -0.00083023	     -0.00083023	     -0.00083023	     -0.00083023	     -0.00083023	     -0.00083023	     -0.00083023	     -0.00083023	     -0.00083023	      0.03685991	     -0.00083023	     -0.00083023	     -0.00083023	      0.04740339	     -0.00083023	      0.05241829	     -0.00083023	      0.02160829	     -0.00083023	     -0.00083023	      0.06293195	     -0.00083023	     -0.00083023	      0.07994945	     -0.00083023	      0.21226907	     -0.00083023	      0.03516353	     -0.00083023	      0.09932177	     -0.00083023	      0.07505476	     -0.00083023	      0.03699675	     -0.00083023	      0.07606500	     -0.00083023	      0.07905375	     -0.00083023	      0.07573899	     -0.00083023	     -0.00083023	      0.11448753	     -0.00083023	     -0.00083023	      0.12397923	     -0.00083023	     -0.00083023	     -0.00083023	      0.08884788	     -0.00083023	     -0.00083023	      0.07666992	     -0.00083023	      0.08598784	     -0.00083023	      0.04337614	     -0.00083023	      0.04801303	     -0.00083023	      0.06434674	     -0.00083023	      0.05525234	     -0.00083023	     -0.00083023	     -0.00083023	     -0.00083023	     -0.00083023	     -0.00083023	     -0.00083023	     -0.00083023	     -0.00083023	      0.03685991	     -0.00083023	     -0.00083023	     -0.00083023	      0.04740339	     -0.00083023	      0.05241829	     -0.00083023	      0.02160829	     -0.00083023	     -0.00083023	      0.06293195	     -0.00083023	     -0.00083023	      0.07994945	     -0.00083023	      0.21226907	     -0.00083023	      0.03516353	     -0.00083023	      0.09932177	     -0.00083023	      0.07505476	     -0.00083023	      0.03699675	     -0.00083023	      0.07606500	     -0.00083023	      0.07905375	     -0.00083023	      0.07573899
      0.08633468	      1.35077029	     10.92489336	     -0.00000000	     -0.00000006	      0.00000000	      0.00000001	     -0.00003703	      0.00158563	      0.89548568	     -0.83169278	      0.00000000	      0.00000000	     -2.13424035	    -19.73617219	      0.22334550	      5.18478559	     -3.48436084	    -74.22878067	     -2.20601852	    -24.48027239	     -0.03850229	     -0.42726135	    -13.49756561	    -82.03395878	      0.90762564	     71.53920934	      0.00000000	      0.00000000	     -2.13424035	    -19.73617218	      0.22334549	      5.18478535	     -3.48436083	    -74.22878055	     -2.20601834	    -24.48027239	     -0.03850228	     -0.42726136	    -13.49756559	    -82.03395875	      0.90762563	     71.53920937	      0.00000000	      0.00000000	     -0.00111559	     -0.00111559	      0.11452519	     -0.00111559	     -0.00111559	      0.12395645	     -0.00111559	     -0.00111559	     -0.00111559	      0.08881874	     -0.00111559	     -0.00111559	      0.07680135	     -0.00111559	      0.08608554	     -0.00111559	      0.04329444	     -0.00111559	      0.04792087	     -0.00111559	      0.06420725	     -0.00111559	      0.05511783	     -0.00111559	     -0.00111559	     -0.00111559	     -0.00111559	     -0.00111559	     -0.00111559	     -0.00111559	     -0.00111559	     -0.00111559	      0.03681409	     -0.00111559	     -0.00111559	     -0.00111559	      0.04744388	     -0.00111559	      0.05244657	     -0.00111559	      0.02152719	     -0.00111559	     -0.00111559	      0.06291506	     -0.00111559	     -0.00111559	      0.07994496	     -0.00111559	      0.21226532	     -0.00111559	      0.03503226	     -0.00111559	      0.09933724	     -0.00111559	      0.07514536	     -0.00111559	      0.03691086	     -0.00111559	      0.07602470	     -0.00111559	      0.07902110	     -0.00111559	      0.07570799	     -0.00111559	     -0.00111559	      0.11452519	     -0.00111559	     -0.00111559	      0.12395645	     -0.00111559	     -0.00111559	     -0.00111559	      0.08881874	     -0.00111559	     -0.00111559	      0.07680135	     -0.00111559	      0.08608554	     -0.00111559	      0.04329444	     -0.00111559	      0.04792087	     -0.00111559	      0.06420725	     -0.00111559	      0.05511783	     -0.00111559	     -0.00111559	     -0.00111559	     -0.00111559	     -0.00111559	     -0.00111559	     -0.00111559	     -0.00111559	     -0.00111559	      0.03681409	     -0.00111559	     -0.00111559	     -0.00111559	      0.04744388	     -0.00111559	      0.05244657	     -0.00111559	      0.02152719	     -0.00111559	     -0.00111559	      0.06291506	     -0.00111559	     -0.00111559	      0.07994496	     -0.00111559	      0.21226532	     -0.00111559	      0.03503226	     -0.00111559	      0.09933724	     -0.00111559	      0.07514536	     -0.00111559	      0.03691086	     -0.00111559	      0.07602470	     -0.00111559	      0.07902110	     -0.00111559	      0.07570799
